<svg width="87" height="34" viewBox="0 0 87 34" fill="none" xmlns="http://www.w3.org/2000/svg">
<path d="M0.912 12V0.464H3.024V9.872H12.432V12H0.912ZM15.5568 12C15.1514 12 14.7781 11.8987 14.4368 11.696C14.1061 11.4933 13.8394 11.2267 13.6368 10.896C13.4341 10.5547 13.3328 10.1813 13.3328 9.776V0.48H15.4448V9.68C15.4448 9.73333 15.4608 9.78133 15.4928 9.824C15.5354 9.856 15.5834 9.872 15.6368 9.872H22.5168C22.5701 9.872 22.6181 9.856 22.6608 9.824C22.7034 9.78133 22.7248 9.73333 22.7248 9.68V0.48H24.8528V9.776C24.8528 10.1813 24.7514 10.5547 24.5488 10.896C24.3461 11.2267 24.0741 11.4933 23.7328 11.696C23.4021 11.8987 23.0341 12 22.6288 12H15.5568ZM28.8388 12C28.4334 12 28.0601 11.8987 27.7188 11.696C27.3881 11.4933 27.1214 11.2267 26.9188 10.896C26.7161 10.5547 26.6148 10.1813 26.6148 9.776V2.704C26.6148 2.29867 26.7161 1.93067 26.9188 1.6C27.1214 1.25867 27.3881 0.986666 27.7188 0.783999C28.0601 0.581333 28.4334 0.48 28.8388 0.48H38.1028V2.608H29.2868C29.1161 2.608 28.9774 2.656 28.8708 2.752C28.7748 2.848 28.7268 2.98667 28.7268 3.168V9.312C28.7268 9.48267 28.7748 9.62133 28.8708 9.728C28.9774 9.824 29.1161 9.872 29.2868 9.872H38.1028V12H28.8388ZM39.803 12V2.704C39.803 2.29867 39.9043 1.93067 40.107 1.6C40.3097 1.25867 40.5763 0.986666 40.907 0.783999C41.2483 0.581333 41.6217 0.48 42.027 0.48H49.083C49.4883 0.48 49.8617 0.581333 50.203 0.783999C50.5443 0.986666 50.8163 1.25867 51.019 1.6C51.2217 1.93067 51.323 2.29867 51.323 2.704V12H49.195V8.128H41.915V12H39.803ZM41.915 6.016H49.195V2.8C49.195 2.74667 49.1737 2.704 49.131 2.672C49.0883 2.62933 49.0403 2.608 48.987 2.608H42.107C42.0537 2.608 42.0057 2.62933 41.963 2.672C41.931 2.704 41.915 2.74667 41.915 2.8V6.016ZM55.322 12C54.9167 12 54.5433 11.8987 54.202 11.696C53.8713 11.4933 53.6047 11.2267 53.402 10.896C53.1993 10.5547 53.098 10.1813 53.098 9.776V8.896H55.21V9.68C55.21 9.73333 55.226 9.78133 55.258 9.824C55.3007 9.856 55.3487 9.872 55.402 9.872H62.298C62.3513 9.872 62.394 9.856 62.426 9.824C62.4687 9.78133 62.49 9.73333 62.49 9.68V7.488C62.49 7.43467 62.4687 7.392 62.426 7.36C62.394 7.328 62.3513 7.312 62.298 7.312H55.322C54.9167 7.312 54.5433 7.21067 54.202 7.008C53.8713 6.80533 53.6047 6.53867 53.402 6.208C53.1993 5.86667 53.098 5.488 53.098 5.072V2.704C53.098 2.29867 53.1993 1.93067 53.402 1.6C53.6047 1.25867 53.8713 0.986666 54.202 0.783999C54.5433 0.581333 54.9167 0.48 55.322 0.48H62.394C62.7993 0.48 63.1673 0.581333 63.498 0.783999C63.8393 0.986666 64.1113 1.25867 64.314 1.6C64.5167 1.93067 64.618 2.29867 64.618 2.704V3.584H62.49V2.8C62.49 2.74667 62.4687 2.704 62.426 2.672C62.394 2.62933 62.3513 2.608 62.298 2.608H55.402C55.3487 2.608 55.3007 2.62933 55.258 2.672C55.226 2.704 55.21 2.74667 55.21 2.8V4.992C55.21 5.04533 55.226 5.088 55.258 5.12C55.3007 5.152 55.3487 5.168 55.402 5.168H62.394C62.7993 5.168 63.1673 5.26933 63.498 5.472C63.8393 5.67467 64.1113 5.94667 64.314 6.288C64.5167 6.61867 64.618 6.992 64.618 7.408V9.776C64.618 10.1813 64.5167 10.5547 64.314 10.896C64.1113 11.2267 63.8393 11.4933 63.498 11.696C63.1673 11.8987 62.7993 12 62.394 12H55.322Z" fill="white"/>
<path d="M1.344 34V16.744H15.264C15.872 16.744 16.432 16.896 16.944 17.2C17.456 17.504 17.864 17.912 18.168 18.424C18.472 18.92 18.624 19.472 18.624 20.08V24.736C18.624 25.344 18.472 25.904 18.168 26.416C17.864 26.928 17.456 27.336 16.944 27.64C16.432 27.928 15.872 28.072 15.264 28.072L4.512 28.096V34H1.344ZM4.8 24.88H15.12C15.2 24.88 15.272 24.856 15.336 24.808C15.4 24.76 15.432 24.696 15.432 24.616V20.2C15.432 20.12 15.4 20.056 15.336 20.008C15.272 19.944 15.2 19.912 15.12 19.912H4.8C4.72 19.912 4.648 19.944 4.584 20.008C4.536 20.056 4.512 20.12 4.512 20.2V24.616C4.512 24.696 4.536 24.76 4.584 24.808C4.648 24.856 4.72 24.88 4.8 24.88ZM20.4467 34V20.056C20.4467 19.448 20.5987 18.896 20.9027 18.4C21.2067 17.888 21.6067 17.48 22.1027 17.176C22.6147 16.872 23.1747 16.72 23.7827 16.72H34.3667C34.9747 16.72 35.5347 16.872 36.0467 17.176C36.5587 17.48 36.9667 17.888 37.2707 18.4C37.5747 18.896 37.7267 19.448 37.7267 20.056V34H34.5347V28.192H23.6147V34H20.4467ZM23.6147 25.024H34.5347V20.2C34.5347 20.12 34.5027 20.056 34.4387 20.008C34.3747 19.944 34.3027 19.912 34.2227 19.912H23.9027C23.8227 19.912 23.7507 19.944 23.6867 20.008C23.6387 20.056 23.6147 20.12 23.6147 20.2V25.024ZM40.1252 34V16.72H43.2692V34H40.1252ZM55.098 34L45.09 16.72H48.786L56.514 30.16L64.266 16.72H67.938L57.93 34H55.098ZM69.2436 34V20.056C69.2436 19.448 69.3956 18.896 69.6996 18.4C70.0036 17.888 70.4036 17.48 70.8996 17.176C71.4116 16.872 71.9716 16.72 72.5796 16.72H83.1636C83.7716 16.72 84.3316 16.872 84.8436 17.176C85.3556 17.48 85.7636 17.888 86.0676 18.4C86.3716 18.896 86.5236 19.448 86.5236 20.056V34H83.3316V28.192H72.4116V34H69.2436ZM72.4116 25.024H83.3316V20.2C83.3316 20.12 83.2996 20.056 83.2356 20.008C83.1716 19.944 83.0996 19.912 83.0196 19.912H72.6996C72.6196 19.912 72.5476 19.944 72.4836 20.008C72.4356 20.056 72.4116 20.12 72.4116 20.2V25.024Z" fill="url(#paint0_linear_658_11)"/>
<defs>
<linearGradient id="paint0_linear_658_11" x1="-14.5" y1="-9.99999" x2="151.752" y2="3.3803" gradientUnits="userSpaceOnUse">
<stop stop-color="#00FF00"/>
<stop offset="1" stop-color="white"/>
</linearGradient>
</defs>
</svg>
